<svg width="15" height="10" viewBox="0 0 15 10" fill="none" xmlns="http://www.w3.org/2000/svg">
<path d="M6.66504 8.88916C6.86035 9.08447 7.09473 9.18213 7.36816 9.18213C7.6416 9.18213 7.87598 9.08447 8.07129 8.88916L14.4434 2.53174C14.6387 2.33643 14.7363 2.09961 14.7363 1.82129C14.7363 1.54297 14.6387 1.30615 14.4434 1.11084C14.248 0.915527 14.0112 0.817871 13.7329 0.817871C13.4546 0.817871 13.2178 0.915527 13.0225 1.11084L7.36816 6.77979L1.71387 1.11084C1.51855 0.915527 1.28174 0.817871 1.00342 0.817871C0.725098 0.817871 0.488281 0.915527 0.292969 1.11084C0.0976562 1.30615 0 1.54297 0 1.82129C0 2.09961 0.0976562 2.33643 0.292969 2.53174L6.66504 8.88916ZM6.37207 6.19385V8.18604H8.36426V6.19385H6.37207Z" fill="#5B2BBA"/>
</svg>
