<svg width="25" height="15" viewBox="0 0 25 15" fill="none" xmlns="http://www.w3.org/2000/svg">
<path d="M11.3072 14.4746C11.6385 14.8249 12.0361 15 12.5 15C12.9639 15 13.3615 14.8249 13.6928 14.4746L24.503 3.07356C24.8343 2.72329 25 2.2986 25 1.79947C25 1.30035 24.8343 0.875657 24.503 0.525394C24.1716 0.175131 23.7699 0 23.2977 0C22.8255 0 22.4238 0.175131 22.0924 0.525394L12.5 10.6918L2.90755 0.525394C2.57621 0.175131 2.17445 0 1.70229 0C1.23012 0 0.828363 0.175131 0.497018 0.525394C0.165673 0.875657 0 1.30035 0 1.79947C0 2.2986 0.165673 2.72329 0.497018 3.07356L11.3072 14.4746ZM10.8101 9.64098V13.2137H14.1899V9.64098H10.8101Z" fill="#E2379D"/>
</svg>
